<svg xmlns="http://www.w3.org/2000/svg" version="1.0" width="851.000000pt" height="293.000000pt" viewBox="0 0 851.000000 293.000000" preserveAspectRatio="xMidYMid meet">
<metadata fill="#cad3d4">
Created by potrace 1.16, written by Peter Selinger 2001-2019
</metadata>
<g transform="translate(0.000000,293.000000) scale(0.100000,-0.100000)" fill="#cad3d4" stroke="none">
<path d="M1417 2813 c-10 -12 -23 -73 -38 -171 -26 -177 -26 -177 56 -167 136 16 250 24 347 25 60 0 110 4 113 10 11 18 57 292 51 306 -4 11 -51 14 -259 14 -229 0 -255 -2 -270 -17z" fill="#cad3d4"/>
<path d="M1490 2329 c-116 -12 -284 -62 -406 -119 -365 -171 -595 -446 -686 -820 -21 -90 -16 -337 11 -435 66 -250 226 -420 489 -521 85 -33 84 -30 52 -184 -24 -115 -25 -136 -4 -144 23 -9 357 -7 371 2 18 12 30 50 42 145 13 97 26 134 50 142 9 2 50 11 91 20 153 31 411 129 491 186 17 12 35 33 40 46 8 22 35 171 106 590 9 50 13 98 10 107 -5 14 -30 16 -166 16 -154 0 -160 -1 -175 -22 -9 -12 -16 -33 -16 -47 0 -51 -63 -407 -75 -427 -18 -28 -207 -108 -234 -99 -12 3 -21 12 -21 18 0 15 32 192 109 617 34 184 69 374 77 423 9 48 24 97 34 109 l17 21 69 -27 c84 -34 124 -57 186 -108 26 -21 55 -38 64 -38 19 0 274 257 274 277 0 12 -96 86 -198 151 -152 98 -385 145 -602 121z m-252 -291 c21 -21 13 -89 -47 -394 -66 -330 -86 -438 -132 -689 -39 -219 -52 -240 -131 -214 -58 19 -109 59 -160 126 -55 71 -70 99 -100 188 -20 60 -23 89 -22 210 0 130 2 146 31 230 80 232 242 418 448 516 89 43 96 44 113 27z" fill="#cad3d4"/>
<path d="M5680 1808 c-71 -27 -141 -99 -171 -175 -19 -48 -24 -77 -24 -164 0 -102 1 -107 38 -183 28 -56 50 -85 79 -107 88 -63 245 -87 359 -53 73 22 165 69 173 89 3 9 6 70 6 135 0 108 -2 120 -19 130 -11 5 -71 10 -135 10 -131 0 -153 -10 -142 -63 3 -17 8 -33 11 -35 3 -3 35 -8 73 -11 l67 -6 3 -40 c3 -48 -18 -72 -86 -98 -115 -45 -240 11 -278 126 -42 123 -8 265 77 326 36 27 50 31 106 31 76 0 110 -15 153 -70 27 -34 37 -40 71 -40 49 0 83 30 73 63 -18 58 -81 116 -153 142 -66 23 -212 19 -281 -7z" fill="#cad3d4"/>
<path d="M2446 1804 c-14 -13 -16 -58 -16 -338 0 -237 3 -325 12 -334 16 -16 90 -16 106 0 17 17 17 659 0 676 -17 17 -84 15 -102 -4z" fill="#cad3d4"/>
<path d="M2732 1808 c-14 -14 -17 -644 -4 -666 5 -7 25 -15 45 -19 65 -10 67 -5 67 214 0 172 2 194 17 200 10 4 21 0 27 -11 6 -9 43 -66 81 -126 39 -60 91 -143 117 -185 30 -47 57 -79 73 -85 36 -14 98 -13 113 2 9 9 12 97 12 334 0 357 0 354 -63 354 -62 0 -62 1 -62 -222 0 -173 -2 -203 -15 -206 -17 -3 -53 49 -179 258 -45 74 -91 143 -103 153 -24 20 -107 24 -126 5z" fill="#cad3d4"/>
<path d="M3452 1808 c-9 -9 -12 -98 -12 -340 0 -313 1 -328 19 -338 27 -14 98 -13 108 3 4 6 9 68 10 136 2 73 8 129 14 137 9 11 44 14 140 14 127 0 130 0 140 24 8 16 8 34 2 53 -9 26 -14 29 -79 36 -38 4 -92 5 -121 1 -81 -8 -93 3 -93 85 0 45 5 72 13 80 8 6 76 12 173 13 l159 3 3 38 c6 67 5 67 -242 67 -159 0 -225 -3 -234 -12z" fill="#cad3d4"/>
<path d="M4063 1808 c-7 -9 -10 -115 -7 -338 1 -179 3 -328 3 -332 1 -5 28 -8 61 -8 33 0 61 3 61 8 1 4 3 57 4 117 2 125 8 151 35 160 32 10 94 -13 127 -47 16 -18 58 -74 92 -124 33 -50 68 -97 77 -105 9 -7 45 -14 86 -15 84 -2 94 10 49 61 -17 19 -46 59 -64 87 -19 29 -53 73 -76 98 -47 50 -49 70 -9 81 155 41 176 269 31 340 -45 22 -62 24 -253 27 -164 3 -208 1 -217 -10z m375 -109 c59 -21 69 -119 14 -155 -22 -15 -48 -18 -142 -19 l-115 0 -3 78 c-2 50 1 84 9 93 14 17 190 20 237 3z" fill="#cad3d4"/>
<path d="M4987 1808 c-9 -7 -29 -49 -46 -93 -53 -143 -202 -509 -217 -532 -31 -49 -3 -71 79 -60 46 6 62 23 77 78 6 21 19 48 29 61 18 22 25 23 151 23 147 0 150 -1 170 -76 17 -63 39 -81 103 -87 46 -4 58 -1 63 12 4 10 -13 64 -41 129 -56 134 -112 274 -167 417 -22 58 -47 113 -56 123 -18 21 -119 24 -145 5z m104 -241 c12 -22 30 -66 40 -96 25 -72 17 -81 -76 -81 -103 0 -106 7 -60 122 49 123 59 129 96 55z" fill="#cad3d4"/>
<path d="M6300 1805 c-10 -12 -11 -73 -6 -278 6 -243 8 -265 29 -306 12 -25 33 -53 47 -63 44 -31 146 -51 240 -46 120 6 171 37 212 126 17 38 20 74 25 301 6 293 8 284 -74 279 l-48 -3 -6 -250 c-6 -279 -10 -299 -73 -329 -72 -34 -161 -11 -203 53 -22 33 -23 41 -23 270 0 171 -3 240 -12 249 -17 17 -93 15 -108 -3z" fill="#cad3d4"/>
<path d="M7031 1806 c-8 -9 -11 -108 -9 -342 l3 -329 60 0 60 0 2 120 c4 166 5 169 54 162 77 -10 108 -36 194 -162 72 -106 86 -121 119 -128 40 -10 102 -2 112 14 8 13 -103 178 -159 236 -44 46 -44 67 1 76 39 8 91 53 108 94 30 71 10 177 -42 222 -44 39 -122 51 -326 51 -128 0 -168 -3 -177 -14z m364 -110 c42 -18 60 -52 51 -99 -12 -63 -32 -72 -170 -72 l-121 0 -3 72 c-4 109 0 113 114 113 60 0 107 -5 129 -14z" fill="#cad3d4"/>
<path d="M7753 1813 c-16 -6 -18 -475 -2 -543 14 -60 52 -108 108 -134 38 -17 65 -21 161 -21 104 0 120 2 165 26 95 48 115 130 115 459 0 187 -1 200 -19 210 -27 14 -98 13 -108 -2 -4 -7 -8 -116 -9 -243 0 -155 -4 -242 -13 -267 -27 -82 -159 -112 -223 -52 -54 51 -58 72 -58 322 0 164 -3 231 -12 240 -12 12 -81 15 -105 5z" fill="#cad3d4"/>
<path d="M5042 981 c-69 -18 -112 -83 -112 -171 0 -69 21 -114 67 -143 49 -33 92 -41 141 -28 82 23 121 76 124 168 2 71 -28 135 -72 158 -37 19 -105 26 -148 16z m109 -64 c72 -49 62 -187 -17 -224 -29 -14 -37 -14 -70 -2 -90 34 -100 188 -16 233 38 21 64 19 103 -7z" fill="#cad3d4"/>
<path d="M5943 981 c-75 -19 -111 -66 -120 -156 -11 -109 59 -186 171 -187 109 -1 166 61 166 182 0 65 -25 113 -75 141 -37 21 -100 30 -142 20z m103 -60 c61 -37 70 -148 17 -203 -39 -40 -103 -40 -144 1 -26 26 -29 36 -29 91 0 57 3 65 34 96 40 40 75 44 122 15z" fill="#cad3d4"/>
<path d="M7781 980 c-48 -12 -75 -43 -75 -85 0 -49 34 -81 113 -105 73 -23 91 -35 91 -60 0 -52 -85 -59 -134 -11 -53 51 -109 33 -72 -24 28 -42 71 -58 149 -53 61 3 72 7 93 31 17 20 24 40 24 68 0 58 -36 91 -118 109 -73 17 -95 39 -66 71 23 25 50 24 103 -6 57 -33 73 -32 69 2 -6 52 -95 84 -177 63z" fill="#cad3d4"/>
<path d="M2568 963 c-9 -10 -23 -39 -32 -65 -8 -25 -34 -89 -56 -142 -23 -53 -38 -101 -35 -106 14 -22 46 -9 70 30 24 39 27 40 81 40 56 0 64 -4 112 -64 17 -21 62 -21 62 -1 0 9 -9 33 -20 54 -10 21 -35 80 -54 130 -18 50 -41 103 -50 116 -19 29 -56 33 -78 8z" fill="#cad3d4"/>
<path d="M2936 971 c-8 -12 12 -26 57 -40 45 -15 46 -20 50 -171 2 -103 4 -115 21 -118 30 -6 36 16 36 143 0 130 5 145 50 145 32 0 66 23 56 38 -9 14 -262 17 -270 3z" fill="#cad3d4"/>
<path d="M3274 969 c-4 -7 -7 -81 -5 -164 2 -126 5 -152 19 -163 24 -19 41 4 49 67 3 30 12 55 20 58 30 12 62 -8 92 -56 35 -58 71 -85 100 -76 25 8 19 26 -26 81 -18 23 -33 44 -33 48 0 4 14 24 31 45 25 32 30 46 27 81 -5 68 -34 84 -162 88 -78 3 -105 1 -112 -9z" fill="#cad3d4"/>
<path d="M3743 968 c-6 -7 -31 -67 -57 -132 -26 -66 -54 -129 -62 -140 -21 -30 -18 -66 5 -66 20 0 51 25 51 41 0 16 64 49 95 49 37 -1 67 -17 95 -52 28 -36 70 -39 70 -4 0 13 -7 29 -15 36 -8 7 -15 17 -15 22 0 22 -85 223 -102 240 -21 21 -51 24 -65 6z" fill="#cad3d4"/>
<path d="M3994 967 c-2 -7 -3 -82 -2 -167 l3 -155 80 -3 c93 -4 149 10 169 41 22 34 40 137 32 182 -5 26 -21 52 -46 77 l-38 38 -96 0 c-70 0 -98 -4 -102 -13z m191 -62 c21 -20 25 -33 25 -87 0 -78 -16 -110 -60 -124 -45 -15 -83 -4 -91 27 -12 43 -10 184 3 197 7 7 32 12 55 12 33 0 50 -6 68 -25z" fill="#cad3d4"/>
<path d="M4354 967 c-2 -7 -3 -82 -2 -167 l3 -155 25 0 25 0 5 155 c4 85 4 161 2 168 -5 16 -51 16 -58 -1z" fill="#cad3d4"/>
<path d="M4475 970 c-11 -17 15 -40 46 -40 52 0 59 -19 52 -138 -7 -121 3 -155 40 -150 21 3 22 8 25 133 1 71 7 134 13 140 5 5 29 14 52 20 26 6 42 16 42 25 0 12 -23 15 -132 18 -86 2 -134 -1 -138 -8z" fill="#cad3d4"/>
<path d="M4800 823 c0 -87 4 -164 9 -171 5 -8 17 -12 27 -10 17 3 20 18 27 148 9 177 7 190 -33 190 l-30 0 0 -157z" fill="#cad3d4"/>
<path d="M5337 973 c-10 -9 -8 -306 2 -321 5 -8 17 -12 27 -10 16 3 20 15 24 93 4 65 9 90 18 90 8 0 39 -38 71 -84 66 -97 82 -111 105 -91 14 11 16 35 14 169 -3 148 -4 156 -23 156 -17 0 -20 -7 -22 -50 -5 -93 -14 -135 -28 -135 -8 0 -29 25 -47 55 -63 106 -87 135 -111 135 -13 0 -27 -3 -30 -7z" fill="#cad3d4"/>
<path d="M6227 963 c-3 -10 -5 -79 -5 -155 0 -149 9 -184 45 -162 13 8 20 28 23 68 6 66 16 76 81 76 30 0 51 6 59 15 20 24 2 34 -64 37 -69 4 -87 20 -68 62 11 24 16 26 76 26 43 0 67 5 76 15 23 28 0 35 -110 35 -95 0 -109 -2 -113 -17z" fill="#cad3d4"/>
<path d="M6664 968 c-9 -14 23 -38 51 -38 40 0 45 -18 45 -152 0 -106 3 -130 15 -134 36 -14 45 14 45 141 0 86 4 126 13 133 6 5 33 13 60 16 37 6 47 11 47 27 0 18 -8 19 -134 19 -91 0 -137 -4 -142 -12z" fill="#cad3d4"/>
<path d="M6978 968 c-2 -7 1 -83 6 -168 10 -145 12 -155 31 -155 17 0 21 8 25 57 6 61 26 93 52 83 9 -4 44 -38 78 -76 43 -49 68 -69 85 -69 13 0 26 4 29 8 6 10 -51 102 -63 102 -5 0 -11 9 -14 20 -4 14 2 25 18 36 59 39 55 142 -7 163 -45 16 -235 15 -240 -1z" fill="#cad3d4"/>
<path d="M7350 965 c-20 -24 1 -280 24 -303 12 -13 39 -18 101 -21 82 -3 85 -2 113 26 28 27 29 33 35 154 4 70 4 134 1 143 -3 9 -16 16 -29 16 -27 0 -33 -24 -35 -149 -1 -99 -16 -136 -59 -146 -68 -15 -91 30 -91 174 0 95 -8 121 -36 121 -6 0 -17 -7 -24 -15z" fill="#cad3d4"/>
<path d="M8027 967 c-8 -21 13 -37 49 -37 17 0 36 -6 42 -13 7 -8 13 -68 14 -143 l3 -129 25 0 25 0 5 130 c3 72 8 135 12 141 4 6 26 14 48 18 32 5 41 10 38 24 -3 15 -19 17 -129 20 -102 2 -128 0 -132 -11z" fill="#cad3d4"/>
</g>
</svg>